<?xml version="1.0" encoding="UTF-8"?>
<svg id="Layer_1" xmlns="http://www.w3.org/2000/svg" xmlns:xlink="http://www.w3.org/1999/xlink" version="1.1" viewBox="0 0 715.9 486.8">
  <!-- Generator: Adobe Illustrator 29.3.1, SVG Export Plug-In . SVG Version: 2.1.0 Build 151)  -->
  <defs>
    <style>
      .st0, .st1, .st2, .st3, .st4 {
        fill: none;
      }

      .st1 {
        stroke-linecap: square;
      }

      .st1, .st2, .st3, .st4 {
        stroke: #000;
      }

      .st1, .st4 {
        stroke-width: 3px;
      }

      .st5, .st6, .st7, .st8, .st9, .st10, .st11 {
        font-family: DINAlternate-Bold, 'DIN Alternate';
        font-weight: 700;
      }

      .st12, .st13 {
        fill-rule: evenodd;
      }

      .st12, .st14 {
        fill: #fff;
      }

      .st15 {
        fill: url(#linear-gradient1);
      }

      .st2, .st3 {
        stroke-width: 2px;
      }

      .st16 {
        fill: #008e45;
        opacity: .8;
      }

      .st3 {
        stroke-dasharray: 12.3 12.3;
      }

      .st17, .st18, .st19, .st20, .st21 {
        fill: #181818;
      }

      .st17, .st22 {
        opacity: .1;
      }

      .st18, .st23 {
        opacity: .5;
      }

      .st19, .st24 {
        opacity: .6;
      }

      .st20, .st25, .st26 {
        opacity: .3;
      }

      .st27 {
        font-family: Arial-Black, 'Arial Black';
        font-weight: 800;
      }

      .st28 {
        clip-path: url(#clippath-1);
      }

      .st29 {
        clip-path: url(#clippath-2);
      }

      .st6, .st11 {
        font-size: 30px;
      }

      .st25 {
        fill: url(#linear-gradient);
      }

      .st30 {
        fill: #757679;
      }

      .st30, .st7 {
        font-size: 25px;
      }

      .st31, .st32 {
        opacity: .5;
      }

      .st31, .st33 {
        fill: #0c5da5;
      }

      .st32 {
        fill: #00b945;
      }

      .st8 {
        font-size: 23px;
      }

      .st8, .st34 {
        display: none;
      }

      .st9 {
        font-size: 33.2px;
      }

      .st9, .st10, .st11 {
        fill: #231f20;
      }

      .st10 {
        font-size: 33.2px;
      }

      .st35 {
        clip-path: url(#clippath);
      }

      .st4 {
        stroke-miterlimit: 10;
      }
    </style>
    <linearGradient id="linear-gradient" x1="24.2" y1="56.8" x2="216.5" y2="56.8" gradientUnits="userSpaceOnUse">
      <stop offset=".2" stop-color="#3b00dd" stop-opacity=".8"/>
      <stop offset=".3" stop-color="#2d2aba" stop-opacity=".8"/>
      <stop offset=".7" stop-color="#0c8d68" stop-opacity=".8"/>
      <stop offset=".9" stop-color="#00b548" stop-opacity=".8"/>
      <stop offset=".9" stop-color="#00a447" stop-opacity=".8"/>
      <stop offset="1" stop-color="#004c45" stop-opacity=".8"/>
      <stop offset="1" stop-color="#002a45" stop-opacity=".8"/>
    </linearGradient>
    <clipPath id="clippath">
      <rect class="st0" x="125.4" y="70.5" width="506.9" height="398.6"/>
    </clipPath>
    <linearGradient id="linear-gradient1" x1="148.4" y1="279.3" x2="280.1" y2="279.3" gradientUnits="userSpaceOnUse">
      <stop offset=".3" stop-color="#0c649e" stop-opacity=".8"/>
      <stop offset=".7" stop-color="#049867" stop-opacity=".8"/>
      <stop offset="1" stop-color="#00b945" stop-opacity=".8"/>
    </linearGradient>
    <clipPath id="clippath-1">
      <rect class="st0" x="253.4" y="70.5" width="506.9" height="398.6"/>
    </clipPath>
    <clipPath id="clippath-2">
      <rect class="st0" x="-56.8" y="69.5" width="506.9" height="398.6"/>
    </clipPath>
  </defs>
  <rect class="st14" width="715.8" height="487.1"/>
  <rect class="st25" x="24.2" y="40.2" width="192.3" height="33.3"/>
  <g class="st35">
    <path class="st15" d="M148.4,469.1h131.7V89.5h-131.7v379.7Z"/>
  </g>
  <g class="st28">
    <path class="st32" d="M441,468.1h131.7V102h-131.7v366.1Z"/>
  </g>
  <g class="st29">
    <path class="st31" d="M295.5,468.1h131.7V100.9h-131.7v367.2Z"/>
  </g>
  <g id="patch_8">
    <path class="st1" d="M125.4,468.1h506.9"/>
  </g>
  <g>
    <line class="st2" x1="130.2" y1="89.5" x2="136.2" y2="89.5"/>
    <line class="st3" x1="148.5" y1="89.5" x2="608.8" y2="89.5"/>
    <line class="st2" x1="614.9" y1="89.5" x2="620.9" y2="89.5"/>
  </g>
  <text class="st10" transform="translate(179.9 153.7)"><tspan x="0" y="0">67.2%</tspan></text>
  <text class="st9" transform="translate(467.9 169.7)"><tspan x="0" y="0">64.8%</tspan></text>
  <text class="st9" transform="translate(324.7 169.4)"><tspan x="0" y="0">65.0%</tspan></text>
  <text class="st11" transform="translate(323.2 201.2)"><tspan x="0" y="0">GPT-5</tspan></text>
  <text class="st11" transform="translate(453.7 201)"><tspan x="0" y="0">Sonnet 4</tspan></text>
  <text class="st30" transform="translate(112.8 469.1) rotate(-90)"><tspan class="st5" x="0" y="0">SWE-bench Verified </tspan><tspan class="st27" x="215.2" y="0">→</tspan></text>
  <g class="st34">
    <path d="M601.9,437.8c-.7.6-.9.7-1.5.5-.5-.2-1.4-.5-1.4-.6.7-.6,1-1.2,1.8-.9.7.3.9.5.9.5,0,0,.5.2.1.5h0Z"/>
    <path d="M608.7,446.2c-2.4-1-4.8-1.9-7.2-2.9.7-1,1.3-1.1,2.2-.8,3.1,1.2,6.1,2.4,9.1,3.6.2,0,.4.1.5.4-.6.8-1.3,1-2.1.7-.8-.3-1.7-.7-2.5-1h0Z"/>
    <path d="M627.1,447.9c.5-.4.9-.4,1.4-.2.7.3,1.5.5,2.1.9,0,.2,0,.3-.2.4-1,.6-2,1.2-3.1,1.8-.2.1-.5.2-.7.1-1.1-.4-2.1-.9-3.2-1.3-.1,0-.2-.1-.3-.3.7-.8,1.1-.9,2-.6.4.1.6,0,.9-.2.3-.2.6-.5,1-.7h0Z"/>
    <path d="M627.9,445.3c1.5.6,2.9,1.1,4.3,1.7.2,0,.5.1.6.4,0,.3-.3.4-.5.6-.4.3-.8.4-1.4.2-2.2-.9-4.4-1.7-6.6-2.6-.2,0-.5-.2-.6-.4.5-.8,1.2-1,2-.7.7.3,1.4.5,2.2.8h0Z"/>
    <path d="M616.6,449.3c-1.2-.5-2.5-.9-3.6-1.5.6-.8,1.3-1.1,2.1-.8,1.9.7,3.7,1.5,5.6,2.2.2,0,.6.2.6.5,0,.3-.3.3-.5.5-.5.4-1,.4-1.6.2-.8-.4-1.7-.7-2.6-1h0Z"/>
    <path d="M599.9,441c.7.4,1.5.5,2.1,1-.8.9-1.2,1.1-2.2.7-1.4-.6-2.9-1.2-4.3-1.7-.2,0-.5-.1-.5-.4,0-.3.3-.4.4-.5.4-.4.9-.4,1.5-.2,1,.4,1.9.8,3,1.2h0Z"/>
    <path d="M601.4,439.4c.6.3,1.2.5,1.8.7.4.2.4.4,0,.7-.6.4-1.1.6-1.8.3-1.2-.6-2.6-1-3.8-1.6-.2,0-.5-.1-.6-.4,0-.3.3-.4.4-.5.4-.4.8-.4,1.3-.2.8.4,1.7.7,2.6,1h0Z"/>
    <path d="M625,450.9c.4.2.8.2,1.1.5-.3.6-1.1,1-1.6.9-1.1-.4-2.2-.8-3.3-1.3,0,0-.1-.1-.2-.2.6-.8,1.2-1,2-.7.6.2,1.3.5,2,.8h0Z"/>
    <path d="M621.6,444.5c-.6-.2-1.1-.4-1.7-.7-.2,0-.4-.1-.4-.4,0-.2.2-.3.4-.4.6-.5,1.2-.5,1.9-.2.6.3,1.2.5,1.8.7.2,0,.4.1.4.4,0,.3-.2.3-.4.4-.6.6-1.3.5-2,0h0Z"/>
    <path d="M617.7,447.4c-.8-.4-1.7-.6-2.4-1,.6-.9,1.2-1,2.1-.7.6.2,1.2.4,1.7.7.2,0,.5.2.6.4-.5.8-1.1,1-2,.7h0Z"/>
    <path d="M617.1,442.7c-.8-.4-1.7-.6-2.4-1,.6-.9,1.2-1,2.1-.7.6.2,1.2.4,1.7.7.2,0,.5.2.6.4-.5.8-1.1,1-2,.7h0Z"/>
    <path d="M609.6,441c-.7.6-1.4.6-2.2.1-.6-.3-1.4-.4-2-.9.6-.8,1.2-1,2-.7.7.3,1.3.5,2,.8.3.1.5.3.2.7h0Z"/>
    <path d="M611.4,443.9c-.7.6-1.4.6-2.2.1-.6-.3-1.4-.4-2-.9.6-.8,1.2-1,2-.7.7.3,1.3.5,2,.8.3.1.5.3.2.7Z"/>
    <path d="M621.3,445c.2.1.4.2.5.4-.5.8-1.1,1-1.9.7-.6-.2-1.2-.5-1.8-.7-.2,0-.5-.1-.6-.4.5-.7,1.1-.9,1.9-.7.6.2,1.2.5,1.9.7Z"/>
    <path d="M616.9,443.2c.2.1.4.2.5.4-.5.8-1.1,1-1.9.7-.6-.2-1.2-.5-1.8-.7-.2,0-.5-.1-.6-.4.5-.7,1.1-.9,1.9-.7.6.2,1.2.5,1.9.7Z"/>
    <path d="M615.5,445.3c-.7.6-1.5.8-2.3.3-.6-.3-1.3-.4-1.9-.9.8-.9,1.3-1,2.3-.6.5.2,1,.4,1.5.6.2,0,.5.2.4.6Z"/>
    <path d="M622.9,448.9c-.4.3-.8.3-1.2.1-.6-.3-1.2-.5-1.8-.7-.2,0-.4-.2-.5-.4.6-.8,1.2-1,2-.7.5.2,1,.4,1.5.6.3.1.7.1.7.4,0,.4-.4.4-.7.6Z"/>
    <path d="M605.1,440.8c.9.4,1.8.6,2.6,1.1-.6.9-1.3,1.1-2.1.7-.7-.3-1.6-.5-2.3-1.1.6-.4,1-1,1.8-.7Z"/>
    <path d="M603.3,437.9c0,.9.7,1.5,1.4,1.4.4,0,.8-.2,1.1-.5.3.1.5.3.1.7-.7.6-1.4.6-2.2.1-.3-.1-.5-.2-.8-.3-.4-.1-.8-.3-1.2-.6.5-.7,1-.9,1.6-.8h0s0,0,0,0Z"/>
    <path d="M618.4,402.6c0,4.9,0,15.3,0,15.3,0,0,0,.8,0,2.1l3.2-.8s2.1-.3,3.2-1.1c.2-.1.3-.3.4-.5.1-.2.3-.4.6-.5.5-.2,1.1-.4,1.7-.6.6-.2,1.2-.3,1.7-.5.9-.4,1.7-.7,2.6-.9.9-.1,2,.7,2.9,1.6.7.7,1.5,2.3,1.8,4,.3,1.6.3,2.6,0,4-.2.7-.4,1.1-.9,1.5-.7.5-1.4.7-2.2.8-.5.1-1,.2-1.5.4-.6.2-1.6.6-1.6.6,0,0-.4,2.2-.9,3.5-.1.4-.2.7-.3,1.1,0,.1,0,.3-.1.4.5.2.8.3.8.3,0,0,10.6,4,15.9,6,.1,0,.3,0,.4.1,0,0,.1,0,.2,0,.3-.2.2-.5.2-.7,0,0,0-.1,0-.1,0-2.8,0-5.7,0-8.5h0c0-5.9,0-11.7,0-17.6,0-.6-.2-.9-.8-1.1-6.6-2.4-13.1-4.8-19.7-7.2,0,0,0,0,0,0-1.8-.6-3.5-1.3-5.3-1.9-.4-.2-.9-.3-1.3-.5h0c-.2,0-.4-.1-.6-.2-.2.3-.2.5-.2.8,0,0,0,.1,0,.2h0Z"/>
    <path d="M607,435.4c-.1.3-.2.6-.2,1,.7.3,1.5.6,2.3.9,0,0,0-.2,0-.3,0-.3,0-.6,0-.8-.7-.3-1.4-.5-2-.8h0Z"/>
    <path d="M613.1,437.7c0,.2,0,.3,0,.4,0,.2,0,.4,0,.7,1.9.8,3.4,1.3,3.4,1.3l15.5,6.1c.7.3,1.5.6,2.2.9.4.2.5.4,0,.7-.1.1-.3.2-.5.3-.7.4-1.4.8-2.1,1.2t0,0h0c-1.6.9-3.3,1.9-4.9,2.9-1.4.9-2.7.9-4.2.3-6.7-2.7-13.4-5.3-20.1-8-2.3-.9-4.7-1.9-7-2.8-.4-.2-1.7-.8-1.2-1.3.9-.8,4.3-3.3,6.6-4.9,0-.2,0-.3-.1-.5-3.1,2-7.1,4.9-7.4,5.4-.6.8-.4,2-.2,2.7,0,0,0,0,0,0,.2,1,.4,1.1,1.4,1.5.2,0,.3.1.5.2,5.3,2.1,10.7,4.3,16,6.4,3.9,1.5,7.7,3.1,11.6,4.6,1.3.4,2.6.5,3.8-.2,1.8-1,3.6-2.1,5.3-3.1.5-.3,1-.6,1.5-.9,2-1.2,2-1.2,2-2.7,0-.2,0-.5,0-.8,0-1.4-.1-1.7-1.5-2.2-2.3-.9-4.7-1.8-7-2.7-2-.8-4-1.6-6-2.3-.2,0-.4,0-.6,0-.4-.1-.7-.3-1-.6h0s-.6-.2-.6-.2c-1.9-.8-3.9-1.5-5.8-2.3h0Z"/>
    <path d="M610,440.9c-.3.1-.6.4-.8.7.3.3.8.4,1.2.6.3,0,.5.2.8.3.8.4,1.5.4,2.2-.1.4-.4.2-.5-.2-.7-.2,0-.4-.2-.7-.3-.2.4-.5.6-.9.6-.6,0-1.2-.5-1.6-1.2h0ZM609.1,438c-.5,0-1,.2-1.4.8.3.3.8.4,1.2.6.2,0,.4.1.6.2-.2-.6-.3-1-.3-1.6ZM606.1,438.4c.1,0,.3,0,.4.1.6.2.7.1,1.5-.5.4-.4-.1-.5-.1-.5,0,0-.2-.2-.9-.5,0,0-.2,0-.3,0,0,.3,0,.6-.1.8,0,0-.2.2-.4.5ZM603.1,437.2c0-.1,0-.2,0-.3h0c0-.1,0-.3,0-.4-.1-.1-.3-.1-.4-.1,0,0,0,0-.1,0-.4,0-.8,0-1-.3,0,0-.1.2-.2.3.3.3.8.4,1.2.6.2,0,.4.1.6.2h0ZM617.9,397.3c-1.6-.6-2.8.2-2.8,2v21.5c0,0,1.9-.5,1.9-.5h.6c.1-6.9.1-13.6.1-20.3,5.1,1.9,10.1,3.8,15.2,5.7h0c4.3,1.6,8.6,3.2,12.9,4.8,1.3.5,1.5.7,1.5,2,0,2.8,0,5.5,0,8.3,0,6.3,0,12.6,0,18.9,0,.7-.6.9-1,.7-6.1-2.1-12-4.2-17.9-6.4-.1.3-.3.5-.5.8-.4.5-.9.8-1.3,1.2,0,0,0,0,0,0,.4.2.9.3,1.3.5,6.4,2.3,12.7,4.5,17.8,6.5,1.3.5,2.4.5,3.6,0,1-.5,1.5-1.1,1.5-2.3,0-1,0-1.9,0-2.9,0-.5,0-1,0-1.4v-25c0-1.5-.4-2.2-1.9-2.7-.5-.2-.9-.3-1.4-.5-2.6-1-5.3-1.9-7.9-2.9-1.4-.5-2.7-1-4.1-1.5-5.8-2.2-11.7-4.3-17.5-6.5h0ZM621,434.1c0,0,.1-.2.2-.2.6-.7,1.2-1.3,1.4-1.9-1-.4-2.1-.8-3.1-1.2-.1,0-.3,0-.4.1-.1,0-.3,0-.4.1h0c-.8.2-1.4.4-2.1.9-.2.1-.4.3-.6.4,1.6.6,3.3,1.2,5,1.8h0ZM612.8,440.9s0,0,.1,0h0c.2,0,.3.1.5.2.6.2.7.1,1.5-.5.4-.4-.1-.5-.1-.5,0,0-.2-.2-.9-.5-.3-.1-.5-.1-.8,0,0,.1,0,.3,0,.4,0,.3-.1.5-.2.8h0Z"/>
    <path d="M634,424.2c-.4.3-.8.3-1.1,0-.3-.3-.3-.7,0-1.1.3-.5.9-.6,1.3-.3.4.3.4.8-.1,1.5Z"/>
    <path class="st13" d="M604.6,439.3c-.7,0-1.3-.5-1.4-1.4,0-.1,0-.3,0-.5,0-.2,0-.4,0-.5h0c0-.1,0-.3,0-.4-.2-.2-.3,0-.5,0-1.2,0-1.8-.7-1.6-1.9.3-1.6.8-3.2,1.5-4.7h0c0-.2.2-.4.1-.7-.2,0-.4,0-.6.2-.3.1-.7.2-1,.2-.9,0-1.5-.3-1.8-1-.3-.7,0-1.4.6-2,1.3-1.2,2.2-2.4,4.1-3.2.7-.3,1.2-.4,2-.6,1.5-.4,4-.7,4-.7l7.2-1.7,4.6-1.2s2.1-.3,3.2-1.1c.4-.3.5-.8,1-1,1-.4,2.4-.7,3.3-1.1.9-.4,1.7-.7,2.6-.9.9-.1,2,.7,2.9,1.6.7.7,1.5,2.3,1.8,4,.3,1.6.3,2.6,0,4-.2.7-.4,1.1-.9,1.5-1.1.8-2.3.7-3.7,1.2-.6.2-1.6.6-1.6.6,0,0-.4,2.2-.9,3.5-.4,1.2-.5,2.3-1.4,3.3-.6.6-1.1.9-1.7,1.5-.8.6-1.7,1.5-2.3,2.1-.4.5-.8.8-1.3,1.4-.6.8-1.4,1.2-2.1,1-.8-.3-1.5-1-1.6-2.1,0-.8.7-2.2.9-3,.5-1.3,2.8-2.9,2.9-4.1,0-.6-.9-.7-1.4-.8-.8-.2-1.5-.2-2.2,0-1,.3-1.6.4-2.5,1-.7.5-1.1.9-1.7,1.3-1,.7-1.1.6-1.6,1.4-.2.4-.3,1.3-.3,2.3,0,1.3.3,2.1,0,3.3-.2.8-.6,2-1.4,1.9-.9,0-1.6-1-2.1-2.1-.4-1-.4-1.8-.5-3-.1-1.3,0-2.3.4-3.5.2-.8.5-1.4.9-1.9.3-.4.8-.8.8-.8,0,0-1.3.8-1.7,1.1-.6.5-1.1,1.2-1.2,1.5-1.5,1.6-1.4,3.2-1.7,4.6,0,0-.7,1.2-1.9,1.4h0ZM604.2,432h0c.4-.8.8-1.7,1.1-2.5.4-1,1.1-1.7,2.2-2.2,2-.9,4-1.7,6-2.5.2,0,.5-.2.8-.2.3,0,.5,0,.6.3,0,.3-.1.5-.3.6-.2,0-.3.2-.5.2,0,0-1.1.5-1.6.7,0,0,0,0,0,0h0c-1.4.6-2.8,1.2-4.3,1.8-.8.3-1.3.9-1.7,1.6-.1.3-.3.5-.4.8h0s0,0,0,0c-.3.7-.7,1.4-1,2.1-.8,1.4-.8,3.1-.9,4.7,0,.2,0,.5.3.6.3,0,.5,0,.7-.2.3-.3.5-.7.5-1.1,0-1.6.8-2.9,1.8-4.1.5-.6.8-1.3,1.5-1.9.7-.5,1.7-1.3,1.7-1.3,0,0,1.5-.6,2.4-1,.9-.4,1.4-.8,2-1,.3,0,.6-.1.8,0,.1,0,.2.2.2.3,0,.2-.1.5-.4.7-.6.4-1.1.5-1.8,1-.8.6-2.1,1.8-2.1,1.8,0,0-1.4,1.5-1.5,2.4-.2,1.3-.4,1.6-.4,3.2s0,3.6,1.5,3.9c.7.2.4-1.6.4-1.6l-.3-2.4s0-1.9.6-2.9c.3-.6.7-.9,1.1-1.2.2-.2,1.5-1.1,2.4-1.9,1.1-.8,2-.9,3.2-1.2,1.4-.4,2.5-.5,3.7.4.6.4,1.1.7,1.1,1.4,0,1-1.1,2-1.7,2.6-.7.8-1.5,1.7-1.9,2.6-.6,1.3-.6,2.4.3,2.8.4.2.6-.1.7-.4,1.5-2.4,3.2-2.9,4.8-4.3,1.1-1.1,1.3-2.2,2.1-3.8.8-1.5.2-3.3,1-4.9.1-.2.2-.5.2-.8,0-2.5-1-4.4-2.9-5.9-.4-.3-.7-.3-1.2-.2-1.6.5-3.3,1-5,1.4-4.4,1.2-8.8,2.3-13.3,3-1.5.2-2.7.6-3.9,1.6-.6.5-1.1,1-1.7,1.4-.5.3-1.3.9-1.1,1.4.5,1.2,3.3-.9,3.6-1.5.4-.8,1.2-1.2,2-1.5,1.8-.5,3.5-1,5.3-1.5.4-.1.9-.2,1.3-.3h0c.1,0,.3,0,.4-.1.3,0,.6,0,.7.3,0,.3-.1.5-.4.6-.7.3-1.4.4-2.1.6h0s0,0,0,0c-1.6.5-3.2,1-4.8,1.5-.7.2-1.2.6-1.5,1.2-1.1,2.3-2.1,4.6-2.7,7,0,.3-.1.6.2.7.3.1.6-.1.7-.4.2-.3.3-.7.4-1h0c0-.2.2-.4.2-.6.2-.4.3-.7.5-1.1h0ZM630.6,425.3c0,.2,0,.4,0,.7,0,.3,0,.7,0,1,.4-.1.7-.2,1.1-.4h0s0,0,0,0h0s0,0,0,0c.9-.3,1.8-.6,2.7-.9.6-.2.8-.5.9-1,.2-1.2.2-2.5,0-3.7-.4-1.9-1.2-3.6-3-4.7-.3-.2-.6-.3-1-.1-.8.3-1.6.5-2.5.8h0c-.2,0-.4.1-.7.2-.4.1-.8.3-1.2.4h0c-.2,0-.4.1-.5.4.1.2.3.3.5.4,2.5,1.4,3.7,4.3,3.7,7h0Z"/>
    <path class="st14" d="M604.2,432h0c-.2.4-.3.7-.5,1.1,0,.2-.2.4-.2.6h0c-.1.4-.3.7-.4,1-.1.3-.3.5-.7.4-.3-.1-.3-.4-.2-.7.6-2.5,1.6-4.8,2.7-7,.3-.6.8-1,1.5-1.2,1.6-.5,3.2-1,4.8-1.5h0s0,0,0,0c.7-.2,1.4-.4,2.1-.6.3-.1.5-.3.4-.6-.1-.3-.4-.4-.7-.3-.1,0-.3,0-.4.1h0c-.4.1-.9.2-1.3.3-1.8.5-3.5,1-5.3,1.5-.8.2-1.6.6-2,1.5-.3.6-3,2.6-3.6,1.5-.2-.5.6-1,1.1-1.4.6-.4,1.2-.9,1.7-1.4,1.1-1,2.4-1.3,3.9-1.6,4.5-.8,8.9-1.9,13.3-3,1.7-.4,3.3-.9,5-1.4.5-.1.8,0,1.2.2,1.9,1.5,3,3.4,2.9,5.9,0,.3,0,.5-.2.8-.8,1.6-.2,3.3-1,4.9-.8,1.6-1,2.8-2.1,3.8-1.6,1.4-3.3,2-4.8,4.3-.2.3-.3.6-.7.4-.9-.3-.9-1.5-.3-2.8.4-.9,1.2-1.8,1.9-2.6.6-.6,1.7-1.6,1.7-2.6s-.6-.9-1.1-1.4c-1.2-.9-2.3-.8-3.7-.4-1.2.3-2.1.4-3.2,1.2-1,.7-2.2,1.7-2.4,1.9-.4.3-.8.6-1.1,1.2-.5,1-.6,2.9-.6,2.9l.3,2.4s.2,1.7-.4,1.6c-1.5-.3-1.5-3.5-1.5-3.9,0-1.6.2-1.9.4-3.2.1-.9,1.5-2.4,1.5-2.4,0,0,1.3-1.2,2.1-1.8.7-.6,1.3-.7,1.8-1,.2-.2.4-.4.4-.7,0-.1-.1-.2-.2-.3-.2-.1-.5,0-.8,0-.6.2-1.1.6-2,1-.9.4-2.4,1-2.4,1,0,0-1.1.7-1.7,1.3-.7.6-1,1.3-1.5,1.9-1,1.2-1.7,2.5-1.8,4.1,0,.4-.2.8-.5,1.1-.2.2-.4.3-.7.2-.3,0-.3-.4-.3-.6,0-1.6,0-3.2.9-4.7.4-.7.7-1.4,1-2.1h0s0,0,0,0c.1-.3.2-.5.4-.8.4-.8.9-1.3,1.7-1.6,1.4-.6,2.8-1.2,4.3-1.8h0s0,0,0,0c.5-.2,1.6-.7,1.6-.7.2,0,.3-.1.5-.2.2-.1.4-.3.3-.6,0-.3-.4-.4-.6-.3-.3,0-.5.1-.8.2-2,.8-4,1.6-6,2.5-1,.4-1.7,1.1-2.2,2.2-.4.8-.7,1.7-1.1,2.5h0Z"/>
    <path class="st12" d="M630.6,426c0-.2,0-.5,0-.7,0-2.7-1.2-5.6-3.7-7-.2,0-.3-.2-.5-.4,0-.3.3-.3.5-.4h0c.4-.1.8-.2,1.2-.4.2,0,.4-.1.7-.2h0c.8-.3,1.6-.5,2.5-.8.4-.1.7,0,1,.1,1.7,1.1,2.6,2.8,3,4.7.2,1.2.2,2.5,0,3.7,0,.5-.3.9-.9,1-.9.3-1.8.6-2.7.9h0s0,0,0,0h0s0,0,0,0c-.4.1-.7.3-1.1.4-.1-.4,0-.7,0-1h0ZM632.9,424.2c.3.4.7.3,1.1,0,.5-.6.6-1.2.1-1.5-.4-.3-1-.1-1.3.3-.2.4-.3.8,0,1.1Z"/>
    <path class="st14" d="M618.4,417.9s0-10.4,0-15.3c0,0,0-.1,0-.2,0-.2,0-.5.2-.8.2,0,.4.1.6.2h0c.4.2.8.3,1.3.5,1.8.6,3.5,1.3,5.3,1.9h0c6.6,2.4,13.1,4.8,19.7,7.2.5.2.8.5.8,1.1,0,5.9,0,11.7,0,17.6h0c0,2.9,0,5.7,0,8.6,0,0,0,0,0,.1,0,.2,0,.5-.2.7,0,0-.1,0-.2,0-.1,0-.3,0-.4-.1-5.3-2-15.9-6-15.9-6,0,0-.3-.1-.8-.3-.1.4-.2.7-.4,1.1,5.9,2.2,11.8,4.4,17.9,6.4.4.1,1,0,1-.7,0-6.3,0-12.6,0-18.9,0-2.8,0-5.5,0-8.3s-.2-1.6-1.5-2c-4.3-1.6-8.6-3.2-12.9-4.8h0c-5.1-1.9-10.1-3.8-15.2-5.7,0,6.7,0,13.4-.1,20.2l.9-.2c0-1.2,0-2.1,0-2.1h0ZM619.6,430.7c1,.4,2.1.8,3.1,1.2,0,0,0-.2,0-.3,0-.6-.9-.7-1.4-.8-.7-.2-1.2-.2-1.8-.1h0Z"/>
    <path class="st12" d="M605.7,438.8c.3.1.5.3.1.7-.7.6-1.4.6-2.2.1-.3-.1-.5-.2-.8-.3-.4-.1-.8-.3-1.2-.6.5-.7,1-.9,1.6-.8h0c0-.1,0-.3,0-.5,0,0,0-.2,0-.2-.2,0-.4-.2-.6-.2-.4-.1-.8-.3-1.2-.6,0,0,.1-.2.2-.3-.2-.1-.4-.4-.5-.6-2.3,1.6-5.7,4.1-6.6,4.9-.5.5.8,1.1,1.2,1.3,2.3.9,4.7,1.9,7,2.8,6.7,2.7,13.4,5.3,20.1,8,1.5.6,2.8.6,4.2-.3,1.6-1,3.2-2,4.9-2.9h0s0,0,0,0c.7-.4,1.4-.8,2.1-1.2.2,0,.3-.2.5-.3.4-.3.4-.5,0-.7-.7-.3-1.5-.6-2.2-.9l-15.5-6.1s-1.5-.6-3.4-1.3c0,.3,0,.6,0,.9.2,0,.5,0,.8,0,.7.3.9.5.9.5,0,0,.5.2.1.5-.7.6-.9.7-1.5.5-.1,0-.3-.1-.5-.2h0s0,0-.1,0c0,.2-.2.4-.3.5.2,0,.4.2.7.3.3.1.5.3.2.7-.7.6-1.4.6-2.2.1-.3-.1-.5-.2-.8-.3-.4-.1-.8-.3-1.2-.6.3-.4.5-.6.8-.7-.2-.3-.3-.6-.5-.9,0,0,0-.2-.1-.3-.2,0-.4-.2-.6-.2-.4-.1-.8-.3-1.2-.6.4-.6.9-.9,1.4-.8,0-.2,0-.5,0-.8-.8-.3-1.6-.6-2.3-.9,0,.2,0,.5-.1.7,0,0,.2,0,.3,0,.7.3.9.5.9.5,0,0,.5.2.1.5-.7.6-.9.7-1.5.5-.1,0-.2,0-.4-.1-.1.1-.3.2-.4.4h0ZM600.4,438.3c.6.2.7.1,1.5-.5.4-.4-.1-.5-.1-.5,0,0-.2-.2-.9-.5-.8-.3-1.2.3-1.8.9,0,0,.9.4,1.4.6h0ZM601.6,443.3c2.4,1,4.8,1.9,7.2,2.9.9.3,1.7.7,2.5,1,.8.3,1.5.1,2.1-.7,0-.2-.3-.3-.5-.4-3-1.2-6.1-2.4-9.1-3.6-.9-.3-1.4-.2-2.2.8h0ZM628.5,447.8c-.5-.2-.9-.2-1.4.2-.3.3-.7.5-1,.7-.3.2-.6.3-.9.2-.9-.3-1.3-.1-2,.6,0,.2.1.2.3.3,1.1.4,2.1.9,3.2,1.3.2,0,.5,0,.7-.1,1-.6,2-1.2,3.1-1.8.1,0,.2-.2.2-.4-.6-.4-1.4-.6-2.1-.9h0ZM632.2,447c-1.4-.6-2.9-1.1-4.3-1.7-.8-.3-1.5-.6-2.2-.8-.8-.3-1.5,0-2,.7.1.2.4.3.6.4,2.2.9,4.4,1.7,6.6,2.6.5.2.9.1,1.4-.2.2-.1.5-.2.5-.6,0-.3-.3-.3-.6-.4h0ZM613,447.8c1.2.6,2.4,1,3.6,1.5.9.4,1.8.7,2.6,1,.6.2,1.1.2,1.6-.2.2-.1.5-.2.5-.5,0-.3-.3-.4-.6-.5-1.9-.7-3.7-1.5-5.6-2.2-.8-.3-1.5,0-2.1.8h0ZM602,441.9c-.6-.5-1.4-.6-2.1-1-1-.4-2-.8-3-1.2-.6-.2-1-.2-1.5.2-.2.2-.5.2-.4.5,0,.2.3.3.5.4,1.4.6,2.9,1.2,4.3,1.7.9.4,1.4.2,2.2-.7h0ZM603.2,440.1c-.6-.2-1.2-.5-1.8-.7-.9-.4-1.8-.7-2.6-1-.5-.2-.9-.2-1.3.2-.2.2-.5.2-.4.5,0,.3.3.3.6.4,1.3.5,2.6,1,3.8,1.6.7.3,1.3.1,1.8-.3.3-.3.4-.5,0-.7h0ZM626.1,451.5c-.3-.3-.7-.3-1.1-.5-.7-.3-1.3-.5-2-.8-.8-.3-1.4,0-2,.7,0,0,0,.2.2.2,1.1.4,2.2.9,3.3,1.3.5.2,1.3-.3,1.6-.9h0ZM620,443.9c.5.2,1.1.4,1.7.7.7.4,1.4.5,2,0,.1-.1.4-.2.4-.4,0-.2-.2-.3-.4-.4-.6-.2-1.2-.4-1.8-.7-.7-.3-1.3-.3-1.9.2-.1.1-.4.2-.4.4,0,.2.2.3.4.4h0ZM615.3,446.4c.7.5,1.6.7,2.4,1,.9.3,1.5,0,2-.7-.1-.2-.4-.3-.6-.4-.6-.2-1.2-.4-1.7-.7-.9-.3-1.5-.2-2.1.7h0ZM614.7,441.6c.7.5,1.6.7,2.4,1,.9.3,1.5,0,2-.7-.1-.2-.4-.3-.6-.4-.6-.2-1.2-.4-1.7-.7-.9-.3-1.5-.2-2.1.7h0ZM607.4,441.1c.8.4,1.5.4,2.2-.1.4-.4.2-.5-.2-.7-.7-.3-1.3-.5-2-.8-.8-.3-1.4-.1-2,.7.6.5,1.3.6,2,.9h0ZM609.2,444.1c.8.4,1.5.4,2.2-.1.4-.4.2-.5-.2-.7-.7-.3-1.3-.5-2-.8-.8-.3-1.4-.1-2,.7.6.5,1.3.6,2,.9ZM621.8,445.3c0-.2-.3-.3-.5-.4-.7-.3-1.3-.5-1.9-.7-.8-.3-1.3,0-1.9.7,0,.3.3.3.6.4.6.2,1.2.5,1.8.7.8.3,1.5,0,1.9-.7ZM617.4,443.5c0-.2-.3-.3-.5-.4-.7-.3-1.3-.5-1.9-.7-.8-.3-1.3,0-1.9.7,0,.3.3.3.6.4.6.2,1.2.5,1.8.7.8.3,1.5,0,1.9-.7ZM613.1,445.6c.9.5,1.6.3,2.3-.3,0-.4-.2-.5-.4-.6-.5-.2-1-.4-1.5-.6-1-.4-1.4-.3-2.3.6.6.5,1.3.6,1.9.9ZM621.7,449c.4.2.8.2,1.2-.1.3-.2.7-.3.7-.6,0-.3-.4-.3-.7-.4-.5-.2-1-.4-1.5-.6-.8-.3-1.4-.1-2,.7,0,.2.3.3.5.4.6.2,1.2.5,1.8.7ZM607.7,441.9c-.8-.5-1.7-.7-2.6-1.1-.8-.3-1.2.3-1.8.7.7.6,1.6.8,2.3,1.1.9.4,1.5.2,2.1-.7Z"/>
  </g>
  <text class="st8" transform="translate(542.8 387.5)"><tspan x="0" y="0">mini-SWE-agent</tspan></text>
  <text class="st6" transform="translate(238.1 30.1)"><tspan class="st33" x="0" y="0">GPT-5 </tspan><tspan x="84.9" y="0">or </tspan><tspan class="st16" x="118.7" y="0">Sonnet 4</tspan><tspan x="228.1" y="0">? </tspan><tspan x="-207.9" y="36">Flipping a coin</tspan><tspan x="-25.9" y="36"> </tspan><tspan x="-18.7" y="36">at every step of your agent beats both!</tspan></text>
  <path class="st22" d="M358,254.6v-3.8c0-.3.1-.6.4-.7l7.6-4.4c1-.6,2.3-.9,3.5-.9,4.8,0,7.8,3.7,7.8,7.6s0,.6,0,.9l-7.8-4.6c-.5-.3-1-.3-1.4,0l-9.9,5.8h0ZM375.7,269.2v-9c0-.6-.2-1-.7-1.2l-9.9-5.8,3.2-1.9c.3-.2.5-.2.8,0l7.6,4.4c2.2,1.3,3.6,4,3.6,6.6s-1.8,5.8-4.6,6.9c0,0,0,0,0,0ZM355.7,261.3l-3.2-1.9c-.3-.2-.4-.4-.4-.7v-8.7c0-4.2,3.2-7.4,7.6-7.4s3.2.6,4.5,1.5l-7.8,4.5c-.5.3-.7.7-.7,1.2v11.5h0s0,0,0,0ZM362.7,265.3l-4.7-2.6v-5.5l4.7-2.6,4.7,2.6v5.5l-4.7,2.6ZM365.7,277.4c-1.7,0-3.2-.6-4.5-1.5l7.8-4.5c.5-.3.7-.7.7-1.2v-11.5l3.3,1.9c.3.2.4.4.4.7v8.7c0,4.2-3.3,7.4-7.7,7.4,0,0,0,0,0,0ZM356.3,268.5l-7.6-4.4c-2.2-1.3-3.6-4-3.6-6.6s1.8-5.8,4.6-6.9v9c0,.6.2,1,.7,1.2l9.9,5.7-3.2,1.9c-.3.2-.5.2-.8,0h0ZM355.9,275c-4.5,0-7.8-3.4-7.8-7.5s0-.6,0-1l7.8,4.5c.5.3,1,.3,1.4,0l9.9-5.7v3.8c0,.3-.1.6-.4.7l-7.6,4.4c-1,.6-2.3.9-3.5.9h0ZM365.7,279.8c4.8,0,8.8-3.4,9.7-7.9,4.4-1.1,7.3-5.3,7.3-9.5s-1.2-5.5-3.3-7.4c.2-.8.3-1.7.3-2.5,0-5.7-4.6-9.9-9.9-9.9s-2.1.2-3.1.5c-1.8-1.7-4.2-2.9-6.9-2.9-4.8,0-8.8,3.4-9.7,7.9-4.4,1.1-7.3,5.3-7.3,9.5s1.2,5.5,3.3,7.4c-.2.8-.3,1.7-.3,2.5,0,5.7,4.6,9.9,9.9,9.9s2.1-.2,3.1-.5c1.8,1.7,4.2,2.9,6.9,2.9h0Z"/>
  <text class="st7" transform="translate(164.8 182.5)"><tspan x="0" y="0">Coinflip at</tspan><tspan x="-1.9" y="30">every step</tspan></text>
  <path class="st26" d="M358,299v-3.8c0-.3.1-.6.4-.7l7.6-4.4c1-.6,2.3-.9,3.5-.9,4.8,0,7.8,3.7,7.8,7.6s0,.6,0,.9l-7.8-4.6c-.5-.3-1-.3-1.4,0l-9.9,5.8h0ZM375.7,313.7v-9c0-.6-.2-1-.7-1.2l-9.9-5.8,3.2-1.9c.3-.2.5-.2.8,0l7.6,4.4c2.2,1.3,3.6,4,3.6,6.6s-1.8,5.8-4.6,6.9c0,0,0,0,0,0ZM355.7,305.7l-3.2-1.9c-.3-.2-.4-.4-.4-.7v-8.7c0-4.2,3.2-7.4,7.6-7.4s3.2.6,4.5,1.5l-7.8,4.5c-.5.3-.7.7-.7,1.2v11.5h0s0,0,0,0ZM362.7,309.8l-4.7-2.6v-5.5l4.7-2.6,4.7,2.6v5.5l-4.7,2.6ZM365.7,321.8c-1.7,0-3.2-.6-4.5-1.5l7.8-4.5c.5-.3.7-.7.7-1.2v-11.5l3.3,1.9c.3.2.4.4.4.7v8.7c0,4.2-3.3,7.4-7.7,7.4,0,0,0,0,0,0ZM356.3,313l-7.6-4.4c-2.2-1.3-3.6-4-3.6-6.6s1.8-5.8,4.6-6.9v9c0,.6.2,1,.7,1.2l9.9,5.7-3.2,1.9c-.3.2-.5.2-.8,0h0ZM355.9,319.5c-4.5,0-7.8-3.4-7.8-7.5s0-.6,0-1l7.8,4.5c.5.3,1,.3,1.4,0l9.9-5.7v3.8c0,.3-.1.6-.4.7l-7.6,4.4c-1,.6-2.3.9-3.5.9h0ZM365.7,324.2c4.8,0,8.8-3.4,9.7-7.9,4.4-1.1,7.3-5.3,7.3-9.5s-1.2-5.5-3.3-7.4c.2-.8.3-1.7.3-2.5,0-5.7-4.6-9.9-9.9-9.9s-2.1.2-3.1.5c-1.8-1.7-4.2-2.9-6.9-2.9-4.8,0-8.8,3.4-9.7,7.9-4.4,1.1-7.3,5.3-7.3,9.5s1.2,5.5,3.3,7.4c-.2.8-.3,1.7-.3,2.5,0,5.7,4.6,9.9,9.9,9.9s2.1-.2,3.1-.5c1.8,1.7,4.2,2.9,6.9,2.9h0Z"/>
  <path class="st23" d="M358,343.4v-3.8c0-.3.1-.6.4-.7l7.6-4.4c1-.6,2.3-.9,3.5-.9,4.8,0,7.8,3.7,7.8,7.6s0,.6,0,.9l-7.8-4.6c-.5-.3-1-.3-1.4,0l-9.9,5.8h0ZM375.7,358.1v-9c0-.6-.2-1-.7-1.2l-9.9-5.8,3.2-1.9c.3-.2.5-.2.8,0l7.6,4.4c2.2,1.3,3.6,4,3.6,6.6s-1.8,5.8-4.6,6.9c0,0,0,0,0,0ZM355.7,350.2l-3.2-1.9c-.3-.2-.4-.4-.4-.7v-8.7c0-4.2,3.2-7.4,7.6-7.4s3.2.6,4.5,1.5l-7.8,4.5c-.5.3-.7.7-.7,1.2v11.5h0s0,0,0,0ZM362.7,354.2l-4.7-2.6v-5.5l4.7-2.6,4.7,2.6v5.5l-4.7,2.6ZM365.7,366.3c-1.7,0-3.2-.6-4.5-1.5l7.8-4.5c.5-.3.7-.7.7-1.2v-11.5l3.3,1.9c.3.2.4.4.4.7v8.7c0,4.2-3.3,7.4-7.7,7.4,0,0,0,0,0,0ZM356.3,357.4l-7.6-4.4c-2.2-1.3-3.6-4-3.6-6.6s1.8-5.8,4.6-6.9v9c0,.6.2,1,.7,1.2l9.9,5.7-3.2,1.9c-.3.2-.5.2-.8,0h0ZM355.9,363.9c-4.5,0-7.8-3.4-7.8-7.5s0-.6,0-1l7.8,4.5c.5.3,1,.3,1.4,0l9.9-5.7v3.8c0,.3-.1.6-.4.7l-7.6,4.4c-1,.6-2.3.9-3.5.9h0ZM365.7,368.6c4.8,0,8.8-3.4,9.7-7.9,4.4-1.1,7.3-5.3,7.3-9.5s-1.2-5.5-3.3-7.4c.2-.8.3-1.7.3-2.5,0-5.7-4.6-9.9-9.9-9.9s-2.1.2-3.1.5c-1.8-1.7-4.2-2.9-6.9-2.9-4.8,0-8.8,3.4-9.7,7.9-4.4,1.1-7.3,5.3-7.3,9.5s1.2,5.5,3.3,7.4c-.2.8-.3,1.7-.3,2.5,0,5.7,4.6,9.9,9.9,9.9s2.1-.2,3.1-.5c1.8,1.7,4.2,2.9,6.9,2.9h0Z"/>
  <path class="st24" d="M358.9,387.9v-3.8c0-.3.1-.6.4-.7l7.6-4.4c1-.6,2.3-.9,3.5-.9,4.8,0,7.8,3.7,7.8,7.6s0,.6,0,.9l-7.8-4.6c-.5-.3-1-.3-1.4,0l-9.9,5.8h0ZM376.5,402.5v-9c0-.6-.2-1-.7-1.2l-9.9-5.8,3.2-1.9c.3-.2.5-.2.8,0l7.6,4.4c2.2,1.3,3.6,4,3.6,6.6s-1.8,5.8-4.6,6.9c0,0,0,0,0,0ZM356.5,394.6l-3.2-1.9c-.3-.2-.4-.4-.4-.7v-8.7c0-4.2,3.2-7.4,7.6-7.4s3.2.6,4.5,1.5l-7.8,4.5c-.5.3-.7.7-.7,1.2v11.5h0s0,0,0,0ZM363.5,398.7l-4.7-2.6v-5.5l4.7-2.6,4.7,2.6v5.5l-4.7,2.6ZM366.5,410.7c-1.7,0-3.2-.6-4.5-1.5l7.8-4.5c.5-.3.7-.7.7-1.2v-11.5l3.3,1.9c.3.2.4.4.4.7v8.7c0,4.2-3.3,7.4-7.7,7.4,0,0,0,0,0,0ZM357.1,401.9l-7.6-4.4c-2.2-1.3-3.6-4-3.6-6.6s1.8-5.8,4.6-6.9v9c0,.6.2,1,.7,1.2l9.9,5.7-3.2,1.9c-.3.2-.5.2-.8,0h0ZM356.7,408.4c-4.5,0-7.8-3.4-7.8-7.5s0-.6,0-1l7.8,4.5c.5.3,1,.3,1.4,0l9.9-5.7v3.8c0,.3-.1.6-.4.7l-7.6,4.4c-1,.6-2.3.9-3.5.9h0ZM366.5,413.1c4.8,0,8.8-3.4,9.7-7.9,4.4-1.1,7.3-5.3,7.3-9.5s-1.2-5.5-3.3-7.4c.2-.8.3-1.7.3-2.5,0-5.7-4.6-9.9-9.9-9.9s-2.1.2-3.1.5c-1.8-1.7-4.2-2.9-6.9-2.9-4.8,0-8.8,3.4-9.7,7.9-4.4,1.1-7.3,5.3-7.3,9.5s1.2,5.5,3.3,7.4c-.2.8-.3,1.7-.3,2.5,0,5.7,4.6,9.9,9.9,9.9s2.1-.2,3.1-.5c1.8,1.7,4.2,2.9,6.9,2.9h0Z"/>
  <path d="M358,432.3v-3.8c0-.3.1-.6.4-.7l7.6-4.4c1-.6,2.3-.9,3.5-.9,4.8,0,7.8,3.7,7.8,7.6s0,.6,0,.9l-7.8-4.6c-.5-.3-1-.3-1.4,0l-9.9,5.8h0ZM375.7,447v-9c0-.6-.2-1-.7-1.2l-9.9-5.8,3.2-1.9c.3-.2.5-.2.8,0l7.6,4.4c2.2,1.3,3.6,4,3.6,6.6s-1.8,5.8-4.6,6.9c0,0,0,0,0,0ZM355.7,439.1l-3.2-1.9c-.3-.2-.4-.4-.4-.7v-8.7c0-4.2,3.2-7.4,7.6-7.4s3.2.6,4.5,1.5l-7.8,4.5c-.5.3-.7.7-.7,1.2v11.5h0s0,0,0,0ZM362.7,443.1l-4.7-2.6v-5.5l4.7-2.6,4.7,2.6v5.5l-4.7,2.6ZM365.7,455.1c-1.7,0-3.2-.6-4.5-1.5l7.8-4.5c.5-.3.7-.7.7-1.2v-11.5l3.3,1.9c.3.2.4.4.4.7v8.7c0,4.2-3.3,7.4-7.7,7.4,0,0,0,0,0,0ZM356.3,446.3l-7.6-4.4c-2.2-1.3-3.6-4-3.6-6.6s1.8-5.8,4.6-6.9v9c0,.6.2,1,.7,1.2l9.9,5.7-3.2,1.9c-.3.2-.5.2-.8,0h0ZM355.9,452.8c-4.5,0-7.8-3.4-7.8-7.5s0-.6,0-1l7.8,4.5c.5.3,1,.3,1.4,0l9.9-5.7v3.8c0,.3-.1.6-.4.7l-7.6,4.4c-1,.6-2.3.9-3.5.9h0ZM365.7,457.5c4.8,0,8.8-3.4,9.7-7.9,4.4-1.1,7.3-5.3,7.3-9.5s-1.2-5.5-3.3-7.4c.2-.8.3-1.7.3-2.5,0-5.7-4.6-9.9-9.9-9.9s-2.1.2-3.1.5c-1.8-1.7-4.2-2.9-6.9-2.9-4.8,0-8.8,3.4-9.7,7.9-4.4,1.1-7.3,5.3-7.3,9.5s1.2,5.5,3.3,7.4c-.2.8-.3,1.7-.3,2.5,0,5.7,4.6,9.9,9.9,9.9s2.1-.2,3.1-.5c1.8,1.7,4.2,2.9,6.9,2.9h0Z"/>
  <path class="st17" d="M516,240.2h-7l12.9,32.5h7l-12.9-32.5ZM495.6,240.2l-12.9,32.5h7.2l2.7-6.8h13.4l2.6,6.8h7.2l-12.8-32.5h-7.4ZM494.9,259.8l4.4-11.4,4.4,11.4h-8.8Z"/>
  <path class="st20" d="M518.1,283.5h-7l12.9,32.5h7l-12.9-32.5ZM497.7,283.5l-12.9,32.5h7.2l2.7-6.8h13.4l2.6,6.8h7.2l-12.8-32.5h-7.4ZM497,303.2l4.4-11.4,4.4,11.4h-8.8Z"/>
  <path class="st18" d="M518.1,327.4h-7l12.9,32.5h7l-12.9-32.5ZM497.7,327.4l-12.9,32.5h7.2l2.7-6.8h13.4l2.6,6.8h7.2l-12.8-32.5h-7.4ZM497,347.1l4.4-11.4,4.4,11.4h-8.8Z"/>
  <path class="st19" d="M518.1,372.7h-7l12.9,32.5h7l-12.9-32.5ZM497.7,372.7l-12.9,32.5h7.2l2.7-6.8h13.4l2.6,6.8h7.2l-12.8-32.5h-7.4ZM497,392.3l4.4-11.4,4.4,11.4h-8.8Z"/>
  <path class="st21" d="M516,416h-7l12.9,32.5h7l-12.9-32.5ZM495.6,416l-12.9,32.5h7.2l2.7-6.8h13.4l2.6,6.8h7.2l-12.8-32.5h-7.4ZM494.9,435.7l4.4-11.4,4.4,11.4h-8.8Z"/>
  <path class="st22" d="M206.9,254.6v-3.8c0-.3.1-.6.4-.7l7.6-4.4c1-.6,2.3-.9,3.5-.9,4.8,0,7.8,3.7,7.8,7.6s0,.6,0,.9l-7.8-4.6c-.5-.3-1-.3-1.4,0l-9.9,5.8h0ZM224.6,269.2v-9c0-.6-.2-1-.7-1.2l-9.9-5.8,3.2-1.9c.3-.2.5-.2.8,0l7.6,4.4c2.2,1.3,3.6,4,3.6,6.6s-1.8,5.8-4.6,6.9c0,0,0,0,0,0ZM204.6,261.3l-3.2-1.9c-.3-.2-.4-.4-.4-.7v-8.7c0-4.2,3.2-7.4,7.6-7.4s3.2.6,4.5,1.5l-7.8,4.5c-.5.3-.7.7-.7,1.2v11.5h0s0,0,0,0ZM211.6,265.3l-4.7-2.6v-5.5l4.7-2.6,4.7,2.6v5.5l-4.7,2.6ZM214.6,277.4c-1.7,0-3.2-.6-4.5-1.5l7.8-4.5c.5-.3.7-.7.7-1.2v-11.5l3.3,1.9c.3.2.4.4.4.7v8.7c0,4.2-3.3,7.4-7.7,7.4,0,0,0,0,0,0ZM205.2,268.5l-7.6-4.4c-2.2-1.3-3.6-4-3.6-6.6s1.8-5.8,4.6-6.9v9c0,.6.2,1,.7,1.2l9.9,5.7-3.2,1.9c-.3.2-.5.2-.8,0h0ZM204.8,275c-4.5,0-7.8-3.4-7.8-7.5s0-.6,0-1l7.8,4.5c.5.3,1,.3,1.4,0l9.9-5.7v3.8c0,.3-.1.6-.4.7l-7.6,4.4c-1,.6-2.3.9-3.5.9h0ZM214.6,279.8c4.8,0,8.8-3.4,9.7-7.9,4.4-1.1,7.3-5.3,7.3-9.5s-1.2-5.5-3.3-7.4c.2-.8.3-1.7.3-2.5,0-5.7-4.6-9.9-9.9-9.9s-2.1.2-3.1.5c-1.8-1.7-4.2-2.9-6.9-2.9-4.8,0-8.8,3.4-9.7,7.9-4.4,1.1-7.3,5.3-7.3,9.5s1.2,5.5,3.3,7.4c-.2.8-.3,1.7-.3,2.5,0,5.7,4.6,9.9,9.9,9.9s2.1-.2,3.1-.5c1.8,1.7,4.2,2.9,6.9,2.9h0Z"/>
  <path class="st23" d="M208.5,343.4v-3.8c0-.3.1-.6.4-.7l7.6-4.4c1-.6,2.3-.9,3.5-.9,4.8,0,7.8,3.7,7.8,7.6s0,.6,0,.9l-7.8-4.6c-.5-.3-1-.3-1.4,0l-9.9,5.8h0ZM226.1,358.1v-9c0-.6-.2-1-.7-1.2l-9.9-5.8,3.2-1.9c.3-.2.5-.2.8,0l7.6,4.4c2.2,1.3,3.6,4,3.6,6.6s-1.8,5.8-4.6,6.9c0,0,0,0,0,0ZM206.1,350.2l-3.2-1.9c-.3-.2-.4-.4-.4-.7v-8.7c0-4.2,3.2-7.4,7.6-7.4s3.2.6,4.5,1.5l-7.8,4.5c-.5.3-.7.7-.7,1.2v11.5h0s0,0,0,0ZM213.1,354.2l-4.7-2.6v-5.5l4.7-2.6,4.7,2.6v5.5l-4.7,2.6ZM216.1,366.3c-1.7,0-3.2-.6-4.5-1.5l7.8-4.5c.5-.3.7-.7.7-1.2v-11.5l3.3,1.9c.3.2.4.4.4.7v8.7c0,4.2-3.3,7.4-7.7,7.4,0,0,0,0,0,0ZM206.7,357.4l-7.6-4.4c-2.2-1.3-3.6-4-3.6-6.6s1.8-5.8,4.6-6.9v9c0,.6.2,1,.7,1.2l9.9,5.7-3.2,1.9c-.3.2-.5.2-.8,0h0ZM206.3,363.9c-4.5,0-7.8-3.4-7.8-7.5s0-.6,0-1l7.8,4.5c.5.3,1,.3,1.4,0l9.9-5.7v3.8c0,.3-.1.6-.4.7l-7.6,4.4c-1,.6-2.3.9-3.5.9h0ZM216.1,368.6c4.8,0,8.8-3.4,9.7-7.9,4.4-1.1,7.3-5.3,7.3-9.5s-1.2-5.5-3.3-7.4c.2-.8.3-1.7.3-2.5,0-5.7-4.6-9.9-9.9-9.9s-2.1.2-3.1.5c-1.8-1.7-4.2-2.9-6.9-2.9-4.8,0-8.8,3.4-9.7,7.9-4.4,1.1-7.3,5.3-7.3,9.5s1.2,5.5,3.3,7.4c-.2.8-.3,1.7-.3,2.5,0,5.7,4.6,9.9,9.9,9.9s2.1-.2,3.1-.5c1.8,1.7,4.2,2.9,6.9,2.9h0Z"/>
  <path class="st24" d="M209.3,387.9v-3.8c0-.3.1-.6.4-.7l7.6-4.4c1-.6,2.3-.9,3.5-.9,4.8,0,7.8,3.7,7.8,7.6s0,.6,0,.9l-7.8-4.6c-.5-.3-1-.3-1.4,0l-9.9,5.8h0ZM227,402.5v-9c0-.6-.2-1-.7-1.2l-9.9-5.8,3.2-1.9c.3-.2.5-.2.8,0l7.6,4.4c2.2,1.3,3.6,4,3.6,6.6s-1.8,5.8-4.6,6.9c0,0,0,0,0,0ZM207,394.6l-3.2-1.9c-.3-.2-.4-.4-.4-.7v-8.7c0-4.2,3.2-7.4,7.6-7.4s3.2.6,4.5,1.5l-7.8,4.5c-.5.3-.7.7-.7,1.2v11.5h0s0,0,0,0ZM214,398.7l-4.7-2.6v-5.5l4.7-2.6,4.7,2.6v5.5l-4.7,2.6ZM216.9,410.7c-1.7,0-3.2-.6-4.5-1.5l7.8-4.5c.5-.3.7-.7.7-1.2v-11.5l3.3,1.9c.3.2.4.4.4.7v8.7c0,4.2-3.3,7.4-7.7,7.4,0,0,0,0,0,0ZM207.6,401.9l-7.6-4.4c-2.2-1.3-3.6-4-3.6-6.6s1.8-5.8,4.6-6.9v9c0,.6.2,1,.7,1.2l9.9,5.7-3.2,1.9c-.3.2-.5.2-.8,0h0ZM207.1,408.4c-4.5,0-7.8-3.4-7.8-7.5s0-.6,0-1l7.8,4.5c.5.3,1,.3,1.4,0l9.9-5.7v3.8c0,.3-.1.6-.4.7l-7.6,4.4c-1,.6-2.3.9-3.5.9h0ZM216.9,413.1c4.8,0,8.8-3.4,9.7-7.9,4.4-1.1,7.3-5.3,7.3-9.5s-1.2-5.5-3.3-7.4c.2-.8.3-1.7.3-2.5,0-5.7-4.6-9.9-9.9-9.9s-2.1.2-3.1.5c-1.8-1.7-4.2-2.9-6.9-2.9-4.8,0-8.8,3.4-9.7,7.9-4.4,1.1-7.3,5.3-7.3,9.5s1.2,5.5,3.3,7.4c-.2.8-.3,1.7-.3,2.5,0,5.7,4.6,9.9,9.9,9.9s2.1-.2,3.1-.5c1.8,1.7,4.2,2.9,6.9,2.9h0Z"/>
  <path class="st20" d="M223.3,288.1h-7l12.9,32.5h7l-12.9-32.5ZM202.9,288.1l-12.9,32.5h7.2l2.7-6.8h13.4l2.6,6.8h7.2l-12.8-32.5h-7.4ZM202.2,307.8l4.4-11.4,4.4,11.4h-8.8Z"/>
  <path class="st21" d="M226.8,420.2h-7l12.9,32.5h7l-12.9-32.5ZM206.4,420.2l-12.9,32.5h7.2l2.7-6.8h13.4l2.6,6.8h7.2l-12.8-32.5h-7.4ZM205.7,439.9l4.4-11.4,4.4,11.4h-8.8Z"/>
  <g>
    <path class="st4" d="M91.8,76.2s0,52.6,29.5,68.8"/>
    <path d="M133.3,149c-6.4,0-14.6,1.1-20.3,3.3l6.8-8.2v-10.6c2.9,5.3,8.6,11.4,13.5,15.5Z"/>
  </g>
</svg>